# xmcd
# 
# Track frame offsets:
#     150
#     34917
#     68905
#     112867
#     147400
#     202980
#     248165
#     297577
# 
# Disc length: 4473
# 
# Revision: 3
# Processed by: cddbd v1.5.2PL0 Copyright (c) Steve Scherf et al.
# Submitted via: BonkEnc v1.0.8
# 
DISCID=78117708
DTITLE=Billy Cobham - Ron Carter - Kenny Barron - The Art Of Three - Live In Japan 2003
DYEAR=2003
DGENRE=Jazz
TTITLE0=I Mean You
TTITLE1=Bouncin' With Bud
TTITLE2=Autumn Leaves
TTITLE3=Out Of Nowhere
TTITLE4=Body And Soul
TTITLE5=Stella By Starlight
TTITLE6=Round Midnight
TTITLE7=Tour De Force
EXTD=YEAR: 2003
EXTT0=
EXTT1=
EXTT2=
EXTT3=
EXTT4=
EXTT5=
EXTT6=
EXTT7=
PLAYORDER=
